# xmcd
#
# Track frame offsets:
#  150
#  14817
#  27286
#  45128
#  59615
#  73754
#  88316
#  103673
#  116052
#  131225
#  142288
#  158002
#
# Disc length: 2343 seconds
#
# Revision: 0
# Processed by: cddbd v1.5.1PL2 Copyright (c) Steve Scherf et al.
# Submitted via: Collectorz.com_Music_Collector 6.10
#
DISCID=b409250c
DTITLE=Country Lise - Tak min ven
DYEAR=1900
DGENRE=Country
TTITLE0=Tak min ven
TTITLE1=Endnu en dag
TTITLE2=Goddag og farvel
TTITLE3=Hvor godt det er at være to
TTITLE4=Bye-bye min ven
TTITLE5=Vågn dog op af din drøm
TTITLE6=Forglem mig ej
TTITLE7=Den vej som jeg skal gå
TTITLE8=Tusind søde ord
TTITLE9=Lige børn leger bedst
TTITLE10=Så gi' mig et kram
TTITLE11=Min kæreste
EXTD=
EXTT0=
EXTT1=
EXTT2=
EXTT3=
EXTT4=
EXTT5=
EXTT6=
EXTT7=
EXTT8=
EXTT9=
EXTT10=
EXTT11=
PLAYORDER=
